<svg xmlns="http://www.w3.org/2000/svg" width="55.324" height="48" viewBox="0 0 55.324 48">
  <g id="logo_azul" data-name="logo azul" transform="translate(-562.145 -391.558)">
    <path id="Caminho_33" data-name="Caminho 33" d="M619.856,405.9l5.8-3.349a1.191,1.191,0,0,0-.011-2.07L618.07,396.1v0l-7.591-4.383a1.192,1.192,0,0,0-1.208.008l-15.165,8.758a1.191,1.191,0,0,0,.011,2.07l7.511,4.337a1.193,1.193,0,0,0,1.26.04l6.993-4.038,12.8,7.388-12.8,7.389-6.993-4.038a1.192,1.192,0,0,0-1.26.04l-7.523,4.343a1.191,1.191,0,0,0,.011,2.07l7.577,4.375v0l7.591,4.383a1.191,1.191,0,0,0,1.208-.007l15.165-8.758a1.191,1.191,0,0,0-.011-2.07l-5.791-3.343,5.806-3.352a1.193,1.193,0,0,0-.013-2.072l-5.793-3.344ZM602.288,416.04l7,4.039a1.192,1.192,0,0,0,1.208-.007l6.983-4.032,5.209,3.007-12.8,7.389-6.993-4.038v0l-5.807-3.353,5.208-3.007Zm0-11.517-5.208-3.007,12.8-7.389,6.993,4.038v0l5.807,3.353-5.209,3.007-7-4.039a1.192,1.192,0,0,0-1.208.007l-6.984,4.032Z" transform="translate(-20.076)" fill="#008ff4"/>
    <path id="Caminho_34" data-name="Caminho 34" d="M617.469,513.916h-2.994v-1.2h2.888v-.937h-3.886v3.131h3.992v-.99Zm-31.11.693,1.135-2.584v0l.581-1.335.659,1.514.332.762.628,1.44.225.5h1.1l-2.392-5.34h-1.1l-2.392,5.34h1.09l.135-.3Zm-20.047-1.066a1.963,1.963,0,0,1-1.341.541,1.709,1.709,0,0,1-1.836-1.805,1.748,1.748,0,0,1,1.836-1.851,1.831,1.831,0,0,1,1.287.5l.671-.648a2.752,2.752,0,0,0-1.958-.815,2.684,2.684,0,0,0-2.826,2.811,2.622,2.622,0,0,0,2.826,2.75,2.81,2.81,0,0,0,2.026-.792l-.686-.693Zm8.644,1.295-1.615-1.821a1.583,1.583,0,0,0,1.348-1.68,1.768,1.768,0,0,0-1.92-1.771c-.846.008-1.691,0-2.537,0v.937h2.537a.859.859,0,1,1,0,1.714h-2.537v2.689h1.006v-1.782h1.021l1.547,1.782h1.15v-.068Zm7.265-.922h-2.994v-1.2h2.887v-.937h-3.885v3.131h3.992v-.99Zm-2.994-3.375h2.994v-.975h-3.992v.975Zm15.611,4.365h1.006V510.48h1.691v-.914h-4.388v.914h1.691v4.426Zm6.907,0v-5.34h-1v5.34Zm8.605-5.34h-1.127l-1.615,4.157L606,509.566h-1.128l2.217,5.363h1.044l2.217-5.363Zm4.126.975h2.994v-.975h-3.992v.975Z" transform="translate(0 -75.471)" fill="#008ff4"/>
  </g>
</svg>
