<svg xmlns="http://www.w3.org/2000/svg" width="64.545" height="56" viewBox="0 0 64.545 56">
  <g id="logo" transform="translate(-562.145 -391.558)">
    <path id="Caminho_33" data-name="Caminho 33" d="M624.247,408.288l6.768-3.908a1.39,1.39,0,0,0-.013-2.415l-8.84-5.1v0l-8.856-5.113a1.39,1.39,0,0,0-1.409.009l-17.693,10.218a1.39,1.39,0,0,0,.013,2.415l8.763,5.06a1.392,1.392,0,0,0,1.47.047l8.159-4.711,14.93,8.62-14.93,8.62-8.159-4.711a1.391,1.391,0,0,0-1.47.047l-8.776,5.067a1.39,1.39,0,0,0,.013,2.415l8.84,5.1,0,0,8.856,5.113a1.389,1.389,0,0,0,1.409-.008l17.693-10.218a1.389,1.389,0,0,0-.013-2.415l-6.756-3.9,6.774-3.911a1.392,1.392,0,0,0-.016-2.417l-6.758-3.9Zm-20.5,11.833,8.162,4.712a1.39,1.39,0,0,0,1.409-.008l8.147-4.7,6.077,3.508-14.936,8.62-8.159-4.711,0,0-6.775-3.912,6.076-3.508Zm0-13.436-6.076-3.508,14.936-8.62,8.159,4.711v0l6.775,3.912-6.077,3.508-8.162-4.712a1.391,1.391,0,0,0-1.409.008l-8.148,4.7Z" transform="translate(-18.194)" fill="#fff"/>
    <path id="Caminho_34" data-name="Caminho 34" d="M626.69,514.658H623.2v-1.4h3.369V512.16h-4.533v3.653h4.657v-1.155Zm-36.295.809,1.324-3.015v0l.678-1.557.769,1.766.387.889.733,1.68.262.586h1.28l-2.791-6.23h-1.28l-2.791,6.23h1.271l.157-.346Zm-23.388-1.244a2.291,2.291,0,0,1-1.564.631,1.994,1.994,0,0,1-2.142-2.106,2.04,2.04,0,0,1,2.142-2.16,2.136,2.136,0,0,1,1.5.587l.782-.756a3.211,3.211,0,0,0-2.284-.951,3.132,3.132,0,0,0-3.3,3.28,3.059,3.059,0,0,0,3.3,3.209,3.279,3.279,0,0,0,2.364-.924l-.8-.809Zm10.084,1.511-1.884-2.124a1.847,1.847,0,0,0,1.573-1.96,2.062,2.062,0,0,0-2.24-2.066c-.986.009-1.973,0-2.96,0v1.093h2.96a1,1,0,1,1,0,2h-2.96v3.137h1.173v-2.079h1.191l1.8,2.079h1.342v-.08Zm8.476-1.075h-3.493v-1.4h3.369V512.16h-4.533v3.653h4.658v-1.155Zm-3.493-3.937h3.493v-1.138h-4.658v1.138Zm18.213,5.093h1.173v-5.164h1.973v-1.067h-5.12v1.067h1.973v5.164Zm8.058,0v-6.23H607.18v6.23Zm10.039-6.23h-1.315l-1.885,4.85-1.875-4.85h-1.316l2.587,6.257H615.8l2.586-6.257Zm4.814,1.138h3.493v-1.138h-4.657v1.138Z" transform="translate(0 -68.397)" fill="#fff"/>
  </g>
</svg>
